<?xml version="1.0" encoding="utf-8"?>
<svg version="1.1" id="Layer_1" xmlns="http://www.w3.org/2000/svg" xmlns:xlink="http://www.w3.org/1999/xlink" x="0px" y="0px"
	 viewBox="0 0 1084 316" enable-background="new 0 0 1084 316" xml:space="preserve">
<rect id="linechart" x="0" y="16" fill="#A6539B" width="1084" height="104"/>
<line id="baseline" x="0" fill="none" stroke="#020203" x1="0" y1="163" x2="1084" y2="163"/>
<rect id="blocks" x="0" y="179" fill="#6FC7DA" width="1084" height="16"/>
<line id="chains" fill="none" stroke="#020203" x1="0" y1="254" x2="1084" y2="254"/>
<g id="one">
	<path id="Link_0_0" fill="#E52521" d="M-2.6,243.3c-0.8-0.5-1.8-0.7-2.7-0.5c-1.2,0.2-2.3,0.8-3,1.9c-0.9,1.3-0.9,3-0.2,4.4
		c0.8,1.4,2.1,2.2,3.7,2.3c0.2,0,0.3,0,0.5,0c0,0.3,0,0.7,0,1c-0.2,0-0.3,0-0.5,0c-0.1,0-0.2,0-0.3,0c-1.9-0.1-3.5-1.1-4.4-2.8
		c-0.9-1.7-0.8-3.8,0.2-5.4c0.9-1.3,2.2-2.1,3.7-2.4c1.4-0.2,2.7,0.2,3.8,0.9c0.1-0.3,0.3-0.5,0.4-0.8c0.3,1.1,0.6,2.1,0.9,3.2
		c-1-0.5-1.9-1.1-2.9-1.6C-3,243.4-2.8,243.4-2.6,243.3z"/>
	<circle id="Node_0" fill="#E52521" cx="5.5" cy="252.6" r="7.8"/>
</g>
<g id="two">
	<path id="Link_0_0" fill="#E52521" d="M-16.8,261.8c-0.9,0.2-1.8,0.8-2.3,1.6c-0.7,1-1.1,2.2-0.8,3.5c0.3,1.6,1.5,2.8,3,3.3
		c1.6,0.4,3,0.1,4.2-1c0.1-0.1,0.2-0.2,0.4-0.4c0.2,0.2,0.5,0.5,0.7,0.7c-0.1,0.1-0.2,0.2-0.4,0.4c-0.1,0.1-0.1,0.1-0.2,0.2
		c-1.4,1.3-3.3,1.7-5.1,1.1s-3.3-2.1-3.7-4c-0.3-1.6,0.1-3,0.9-4.3c0.8-1.1,2.1-1.8,3.3-2.1c-0.1-0.3-0.1-0.6-0.3-0.8
		c1,0.6,1.9,1.1,2.9,1.6c-1.1,0.4-2.1,0.6-3.2,0.9C-17,262.2-16.9,262-16.8,261.8z"/>
	<path id="Link_1_1" fill="#67B32E" d="M28.1,243.2c0.9-0.2,1.8-0.8,2.3-1.6c0.7-1,1.1-2.2,0.8-3.5c-0.3-1.6-1.5-2.8-3-3.3
		c-1.6-0.4-3-0.1-4.2,1c-0.1,0.1-0.2,0.2-0.4,0.4c-0.2-0.2-0.5-0.5-0.7-0.7c0.1-0.1,0.2-0.2,0.4-0.4c0.1-0.1,0.1-0.1,0.2-0.2
		c1.4-1.3,3.3-1.7,5.1-1.1s3.3,2.1,3.7,4c0.3,1.6-0.1,3-0.9,4.3c-0.8,1.1-2.1,1.8-3.3,2.1c0.1,0.3,0.1,0.6,0.3,0.8
		c-1-0.6-1.9-1.1-2.9-1.6c1.1-0.4,2.1-0.6,3.2-0.9C28.3,242.8,28.2,243,28.1,243.2z"/>
	<path id="Link_0_1" fill="#F18619" d="M6,249.5c0,0.3,0.1,0.6,0.1,0.8c0.6-0.9,1.2-1.9,1.8-2.8c-1.1,0.2-2.2,0.5-3.3,0.6
		c0.3,0.1,0.5,0.4,0.7,0.4c-2.1,1.7-3.8,3.5-5.2,5.8c0.3,0.1,0.6,0.4,0.8,0.6C2.4,252.8,4,251.1,6,249.5z"/>
	<path id="Link_1_0" fill="#93C020" d="M5.4,255.6c0-0.3-0.1-0.6-0.1-0.8c-0.6,0.9-1.2,1.9-1.8,2.8c1.1-0.2,2.2-0.5,3.3-0.6
		c-0.3-0.1-0.5-0.4-0.7-0.4c2.1-1.7,3.8-3.5,5.2-5.8c-0.3-0.1-0.6-0.4-0.8-0.6C9,252.3,7.4,254,5.4,255.6z"/>
    <circle id="Node_0" fill="#E52521" cx="-4.5" cy="262.6" r="7.8"/>
	<circle id="Node_1" fill="#E52521" cx="15.8" cy="242.4" r="7.8"/>
</g>
<g id="three">
	<path id="Link_0_0" fill="#E52521" d="M-16.8,235.2c-0.8-0.5-1.8-0.7-2.7-0.5c-1.2,0.2-2.3,0.8-3,1.9c-0.9,1.3-0.9,3-0.2,4.4
		c0.8,1.4,2.1,2.2,3.7,2.3c0.2,0,0.3,0,0.5,0c0,0.3,0,0.7,0,1c-0.2,0-0.3,0-0.5,0c-0.1,0-0.2,0-0.3,0c-1.9-0.1-3.5-1.1-4.4-2.8
		c-0.9-1.7-0.8-3.8,0.2-5.4c0.9-1.3,2.2-2.1,3.7-2.4c1.4-0.2,2.7,0.2,3.8,0.9c0.1-0.3,0.3-0.5,0.4-0.8c0.3,1.1,0.6,2.1,0.9,3.2
		c-1-0.5-1.9-1.1-2.9-1.6C-17.2,235.3-17,235.3-16.8,235.2z"/>
	<path id="Link_1_1" fill="#67B32E" d="M28.9,235.4c-1,0.5-1.9,1.1-2.9,1.6c0.3-1.1,0.6-2.1,0.9-3.2c0.1,0.3,0.3,0.5,0.4,0.8
		c1.1-0.7,2.4-1.1,3.8-0.9c1.5,0.3,2.8,1.1,3.7,2.4c1,1.6,1.1,3.7,0.2,5.4c-0.9,1.7-2.5,2.7-4.4,2.8c-0.1,0-0.2,0-0.3,0
		c-0.2,0-0.3,0-0.5,0c0-0.3,0-0.7,0-1c0.2,0,0.3,0,0.5,0c1.6-0.1,2.9-0.9,3.7-2.3c0.7-1.4,0.7-3.1-0.2-4.4c-0.7-1.1-1.8-1.7-3-1.9
		c-0.9-0.2-1.9,0-2.7,0.5C28.3,235.3,28.5,235.3,28.9,235.4z"/>
	<path id="Link_2_2" fill="#2B4B9B" d="M9,281.6c0.1-1.1,0-2.2,0.1-3.3c0.8,0.8,1.5,1.6,2.3,2.4c-0.3-0.1-0.6,0-0.9-0.1
		c0.1,1.3-0.2,2.6-1.1,3.7c-1,1.1-2.4,1.9-3.9,2c-1.9,0.1-3.8-0.9-4.8-2.5c-1-1.6-1.1-3.5-0.2-5.2c0-0.1,0.1-0.2,0.1-0.3
		c0.1-0.2,0.1-0.3,0.2-0.4c0.3,0.1,0.6,0.4,0.9,0.5c-0.1,0.2-0.2,0.3-0.2,0.4c-0.7,1.4-0.7,3,0.1,4.4c0.9,1.3,2.3,2.2,3.9,2
		c1.3-0.1,2.4-0.7,3.1-1.6c0.6-0.7,1-1.6,0.9-2.6C9.4,281.1,9.3,281.3,9,281.6z"/>
	<path id="Link_0_1" fill="#F18619" d="M8,242.6c-0.2,0.2-0.3,0.5-0.5,0.7c1.1-0.2,2.2-0.5,3.3-0.7c-0.9-0.6-1.9-1.2-2.8-1.9
		c0.1,0.3,0.1,0.6,0.2,0.8c-2.7-0.3-5.2-0.2-7.8,0.4c0.1,0.3,0.1,0.7,0.2,1C3.1,242.4,5.5,242.3,8,242.6z"/>
	<path id="Link_0_2" fill="#E72687" d="M1.4,258c-0.3,0-0.6,0-0.9-0.1c0.8,0.8,1.5,1.7,2.3,2.5c0.1-1.1,0.1-2.2,0.2-3.4
		c-0.2,0.2-0.4,0.4-0.6,0.6C1.3,255.1,0,253-1.8,251c-0.3,0.2-0.5,0.5-0.8,0.7C-0.9,253.7,0.4,255.7,1.4,258z"/>
	<path id="Link_1_0" fill="#93C020" d="M3.3,246.5c0.2-0.2,0.3-0.5,0.5-0.7c-1.1,0.2-2.2,0.5-3.3,0.7c0.9,0.6,1.9,1.2,2.8,1.9
		c-0.1-0.3-0.1-0.6-0.2-0.8c2.7,0.3,5.2,0.2,7.8-0.4c-0.1-0.3-0.1-0.7-0.2-1C8.2,246.7,5.8,246.8,3.3,246.5z"/>
	<path id="Link_1_2" fill="#6EBA6F" d="M13.3,260c-0.1-0.3-0.3-0.5-0.4-0.8c-0.3,1.1-0.7,2.1-1,3.2c1-0.5,2-1,3-1.5
		c-0.3-0.1-0.5-0.2-0.8-0.3c1.6-2.1,2.8-4.4,3.6-7c-0.3-0.1-0.7-0.2-1-0.3C15.9,255.8,14.8,257.9,13.3,260z"/>
	<path id="Link_2_0" fill="#5A4596" d="M-4.4,255.9c0.3,0,0.6,0,0.9,0.1c-0.8-0.8-1.5-1.7-2.3-2.5c-0.1,1.1-0.1,2.2-0.2,3.4
		c0.2-0.2,0.4-0.4,0.6-0.6c1.1,2.5,2.4,4.6,4.2,6.6c0.3-0.2,0.5-0.5,0.8-0.7C-2.1,260.2-3.4,258.2-4.4,255.9z"/>
	<path id="Link_2_1" fill="#3F7BBF" d="M12.3,253.9c0.1,0.3,0.3,0.5,0.4,0.8c0.3-1.1,0.7-2.1,1-3.2c-1,0.5-2,1-3,1.5
		c0.3,0.1,0.5,0.2,0.8,0.3c-1.6,2.1-2.8,4.4-3.6,7c0.3,0.1,0.7,0.2,1,0.3C9.7,258.1,10.8,255.9,12.3,253.9z"/>
    <circle id="Node_0" fill="#67B32E" cx="-8.7" cy="244.5" r="7.8"/>
	<circle id="Node_1" fill="#67B32E" cx="20" cy="244.5" r="7.8"/>
	<circle id="Node_2" fill="#2B4B9B" cx="5.6" cy="269.3" r="7.8"/>
</g>
</svg>
