<?xml version="1.0" encoding="utf-8"?>
<svg version="1.0" id="Layout" xmlns="http://www.w3.org/2000/svg" xmlns:xlink="http://www.w3.org/1999/xlink" x="0px" y="0px" viewBox="0 0 1024 384"
	 enable-background="new 0 0 1024 384" xml:space="preserve">
		<line id="baseline" fill="none" stroke="#000000" x1="32" y1="228" x2="992" y2="228"/>
		<rect id="linechart" x="32" y="32" fill="#FF00FF" width="960" height="104"/>
		<rect id="blocks" x="32" y="244" fill="#00FFFF" width="960" height="16"/>
		<line id="chains" fill="none" stroke="#000000" x1="32" y1="306" x2="992" y2="306"/>
		<g id="one">
			<path id="Link_0_0" fill="#FF0000" d="M23.9,296.7c-0.8-0.5-1.8-0.7-2.7-0.5c-1.2,0.2-2.3,0.8-3,1.9c-0.9,1.3-0.9,3-0.2,4.4
				c0.8,1.4,2.1,2.2,3.7,2.3c0.2,0,0.3,0,0.5,0c0,0.3,0,0.7,0,1c-0.2,0-0.3,0-0.5,0c-0.1,0-0.2,0-0.3,0c-1.9-0.1-3.5-1.1-4.4-2.8
				c-0.9-1.7-0.8-3.8,0.2-5.4c0.9-1.3,2.2-2.1,3.7-2.4c1.4-0.2,2.7,0.2,3.8,0.9c0.1-0.3,0.3-0.5,0.4-0.8c0.3,1.1,0.6,2.1,0.9,3.2
				c-1-0.5-1.9-1.1-2.9-1.6C23.5,296.8,23.7,296.8,23.9,296.7z"/>
			<circle id="Node_0" fill="#FF0000" cx="32" cy="306" r="7.8"/>
		</g>
		<g id="two">
			<path id="Link_0_0" fill="#FF0000" d="M9.7,315.2c-0.9,0.2-1.8,0.8-2.3,1.6c-0.7,1-1.1,2.2-0.8,3.5c0.3,1.6,1.5,2.8,3,3.3
				c1.6,0.4,3,0.1,4.2-1c0.1-0.1,0.2-0.2,0.4-0.4c0.2,0.2,0.5,0.5,0.7,0.7c-0.1,0.1-0.2,0.2-0.4,0.4c-0.1,0.1-0.1,0.1-0.2,0.2
				c-1.4,1.3-3.3,1.7-5.1,1.1c-1.8-0.6-3.3-2.1-3.7-4c-0.3-1.6,0.1-3,0.9-4.3c0.8-1.1,2.1-1.8,3.3-2.1c-0.1-0.3-0.1-0.6-0.3-0.8
				c1,0.6,1.9,1.1,2.9,1.6c-1.1,0.4-2.1,0.6-3.2,0.9C9.5,315.6,9.6,315.4,9.7,315.2z"/>
			<path id="Link_1_1" fill="#00FF00" d="M54.6,296.6c0.9-0.2,1.8-0.8,2.3-1.6c0.7-1,1.1-2.2,0.8-3.5c-0.3-1.6-1.5-2.8-3-3.3
				c-1.6-0.4-3-0.1-4.2,1c-0.1,0.1-0.2,0.2-0.4,0.4c-0.2-0.2-0.5-0.5-0.7-0.7c0.1-0.1,0.2-0.2,0.4-0.4c0.1-0.1,0.1-0.1,0.2-0.2
				c1.4-1.3,3.3-1.7,5.1-1.1c1.8,0.6,3.3,2.1,3.7,4c0.3,1.6-0.1,3-0.9,4.3c-0.8,1.1-2.1,1.8-3.3,2.1c0.1,0.3,0.1,0.6,0.3,0.8
				c-1-0.6-1.9-1.1-2.9-1.6c1.1-0.4,2.1-0.6,3.2-0.9C54.8,296.2,54.7,296.4,54.6,296.6z"/>
			<path id="Link_0_1" fill="#FF8800" d="M32.5,302.9c0,0.3,0.1,0.6,0.1,0.8c0.6-0.9,1.2-1.9,1.8-2.8c-1.1,0.2-2.2,0.5-3.3,0.6
				c0.3,0.1,0.5,0.4,0.7,0.4c-2.1,1.7-3.8,3.5-5.2,5.8c0.3,0.1,0.6,0.4,0.8,0.6C28.9,306.2,30.5,304.5,32.5,302.9z"/>
			<path id="Link_1_0" fill="#88FF00" d="M31.9,309c0-0.3-0.1-0.6-0.1-0.8c-0.6,0.9-1.2,1.9-1.8,2.8c1.1-0.2,2.2-0.5,3.3-0.6
				c-0.3-0.1-0.5-0.4-0.7-0.4c2.1-1.7,3.8-3.5,5.2-5.8c-0.3-0.1-0.6-0.4-0.8-0.6C35.5,305.7,33.9,307.4,31.9,309z"/>
			
                <circle id="Node_0" fill="#FF0000" cx="22" cy="316" r="7.8"/>
                <circle id="Node_1" fill="#FF0000" cx="42.3" cy="295.8" r="7.8"/>

		</g>
		<g id="three">
			<path id="Link_0_0" fill="#FF0000" d="M9.7,288.6c-0.8-0.5-1.8-0.7-2.7-0.5c-1.2,0.2-2.3,0.8-3,1.9c-0.9,1.3-0.9,3-0.2,4.4
				c0.8,1.4,2.1,2.2,3.7,2.3c0.2,0,0.3,0,0.5,0c0,0.3,0,0.7,0,1c-0.2,0-0.3,0-0.5,0c-0.1,0-0.2,0-0.3,0c-1.9-0.1-3.5-1.1-4.4-2.8
				c-0.9-1.7-0.8-3.8,0.2-5.4c0.9-1.3,2.2-2.1,3.7-2.4c1.4-0.2,2.7,0.2,3.8,0.9c0.1-0.3,0.3-0.5,0.4-0.8c0.3,1.1,0.6,2.1,0.9,3.2
				c-1-0.5-1.9-1.1-2.9-1.6C9.3,288.7,9.5,288.7,9.7,288.6z"/>
			<path id="Link_1_1" fill="#00FF00" d="M55.4,288.8c-1,0.5-1.9,1.1-2.9,1.6c0.3-1.1,0.6-2.1,0.9-3.2c0.1,0.3,0.3,0.5,0.4,0.8
				c1.1-0.7,2.4-1.1,3.8-0.9c1.5,0.3,2.8,1.1,3.7,2.4c1,1.6,1.1,3.7,0.2,5.4c-0.9,1.7-2.5,2.7-4.4,2.8c-0.1,0-0.2,0-0.3,0
				c-0.2,0-0.3,0-0.5,0c0-0.3,0-0.7,0-1c0.2,0,0.3,0,0.5,0c1.6-0.1,2.9-0.9,3.7-2.3c0.7-1.4,0.7-3.1-0.2-4.4c-0.7-1.1-1.8-1.7-3-1.9
				c-0.9-0.2-1.9,0-2.7,0.5C54.8,288.7,55,288.7,55.4,288.8z"/>
			<path id="Link_2_2" fill="#0000FF" d="M35.5,335c0.1-1.1,0-2.2,0.1-3.3c0.8,0.8,1.5,1.6,2.3,2.4c-0.3-0.1-0.6,0-0.9-0.1
				c0.1,1.3-0.2,2.6-1.1,3.7c-1,1.1-2.4,1.9-3.9,2c-1.9,0.1-3.8-0.9-4.8-2.5c-1-1.6-1.1-3.5-0.2-5.2c0-0.1,0.1-0.2,0.1-0.3
				c0.1-0.2,0.1-0.3,0.2-0.4c0.3,0.1,0.6,0.4,0.9,0.5c-0.1,0.2-0.2,0.3-0.2,0.4c-0.7,1.4-0.7,3,0.1,4.4c0.9,1.3,2.3,2.2,3.9,2
				c1.3-0.1,2.4-0.7,3.1-1.6c0.6-0.7,1-1.6,0.9-2.6C35.9,334.5,35.8,334.7,35.5,335z"/>
			<path id="Link_0_1" fill="#FF8800" d="M34.5,296c-0.2,0.2-0.3,0.5-0.5,0.7c1.1-0.2,2.2-0.5,3.3-0.7c-0.9-0.6-1.9-1.2-2.8-1.9
				c0.1,0.3,0.1,0.6,0.2,0.8c-2.7-0.3-5.2-0.2-7.8,0.4c0.1,0.3,0.1,0.7,0.2,1C29.6,295.8,32,295.7,34.5,296z"/>
			<path id="Link_0_2" fill="#FF0088" d="M27.9,311.4c-0.3,0-0.6,0-0.9-0.1c0.8,0.8,1.5,1.7,2.3,2.5c0.1-1.1,0.1-2.2,0.2-3.4
				c-0.2,0.2-0.4,0.4-0.6,0.6c-1.1-2.5-2.4-4.6-4.2-6.6c-0.3,0.2-0.5,0.5-0.8,0.7C25.6,307.1,26.9,309.1,27.9,311.4z"/>
			<path id="Link_1_0" fill="#88FF00" d="M29.8,299.9c0.2-0.2,0.3-0.5,0.5-0.7c-1.1,0.2-2.2,0.5-3.3,0.7c0.9,0.6,1.9,1.2,2.8,1.9
				c-0.1-0.3-0.1-0.6-0.2-0.8c2.7,0.3,5.2,0.2,7.8-0.4c-0.1-0.3-0.1-0.7-0.2-1C34.7,300.1,32.3,300.2,29.8,299.9z"/>
			<path id="Link_1_2" fill="#00FF88" d="M39.8,313.4c-0.1-0.3-0.3-0.5-0.4-0.8c-0.3,1.1-0.7,2.1-1,3.2c1-0.5,2-1,3-1.5
				c-0.3-0.1-0.5-0.2-0.8-0.3c1.6-2.1,2.8-4.4,3.6-7c-0.3-0.1-0.7-0.2-1-0.3C42.4,309.2,41.3,311.3,39.8,313.4z"/>
			<path id="Link_2_0" fill="#8800FF" d="M22.1,309.3c0.3,0,0.6,0,0.9,0.1c-0.8-0.8-1.5-1.7-2.3-2.5c-0.1,1.1-0.1,2.2-0.2,3.4
				c0.2-0.2,0.4-0.4,0.6-0.6c1.1,2.5,2.4,4.6,4.2,6.6c0.3-0.2,0.5-0.5,0.8-0.7C24.4,313.6,23.1,311.6,22.1,309.3z"/>
			<path id="Link_2_1" fill="#0088FF" d="M38.8,307.3c0.1,0.3,0.3,0.5,0.4,0.8c0.3-1.1,0.7-2.1,1-3.2c-1,0.5-2,1-3,1.5
				c0.3,0.1,0.5,0.2,0.8,0.3c-1.6,2.1-2.8,4.4-3.6,7c0.3,0.1,0.7,0.2,1,0.3C36.2,311.5,37.3,309.3,38.8,307.3z"/>

            <circle id="Node_0" fill="#00FF00" cx="17.8" cy="297.9" r="7.8"/>
			<circle id="Node_1" fill="#00FF00" cx="46.5" cy="297.9" r="7.8"/>
			<circle id="Node_2" fill="#0000FF" cx="32.1" cy="322.7" r="7.8"/>
		</g>
</svg>
